Coordinates
version=1
nRows=7
nColumns=33
inDegrees=yes

Units are S.I. units (second, meters, Newtons, ...)
Angles are in degrees.

endheader
time	ground_thorax_rot_x	ground_thorax_rot_y	ground_thorax_rot_z	ground_thorax_tx	ground_thorax_ty	ground_thorax_tz	clav_prot_r	clav_elev_r	scapula_abduction_r	scapula_elevation_r	scapula_upward_rot_r	scapula_winging_r	shoulder_elv_r	plane_of_elev_r	axial_rot_r	elbow_flexion_r	pro_sup_r	wrist_flex_r	wrist_dev_r	clav_prot_l	clav_elev_l	scapula_abduction_l	scapula_elevation_l	scapula_upward_rot_l	scapula_winging_l	shoulder_elv_l	plane_of_elev_l	axial_rot_l	elbow_flexion_l	pro_sup_l	wrist_flex_l	wrist_dev_l
      3.67000000	     28.69420955	     28.36205169	     42.01951018	     34.81760434	    820.21907357	    -44.92678157	     -2.51027271	     41.37802633	     43.95825332	     45.00000000	     17.43571771	   1670.46697777	   -468.22763506	    141.41522326	   -179.99999979	   1785.82877532	     59.65819507	     20.99878242	     17.12001275	    -10.97150538	    -45.00000000	    -38.42411139	     45.00000000	    -45.00000000	   5500.23691499	  -3327.60891269	    131.94940502	   -112.07721345	   1428.85048589	     40.23314767	     14.74964015	    -16.27585012
      3.68000000	     28.64684895	     28.49590823	     42.27201323	     37.29211734	    818.24810547	    -44.83274884	     -2.54335505	     41.48148238	     44.02223199	     45.00000000	     17.20900742	   1670.24018157	   -468.53636800	    141.37473564	   -179.99999979	   1785.82500803	     59.67923083	     20.76316608	     17.06808676	    -11.20264970	    -45.00000000	    -38.25800987	     45.00000000	    -45.00000000	   5500.08300171	  -3327.78180911	    131.99297659	   -112.26336072	   1428.86493430	     40.38306310	     14.69156809	    -16.15738611
      3.69000000	     28.59760422	     28.63197920	     42.52111194	     39.73945815	    816.24666829	    -44.73865408	     -2.57918184	     41.58878965	     44.07490478	     45.00000000	     16.98638908	   1670.02793615	   -468.83328008	    141.34635595	   -179.99999979	   1785.81907867	     59.70956927	     20.53046887	     17.00473847	    -11.43016314	    -45.00000000	    -38.09360461	     45.00000000	    -45.00000000	   5499.93248374	  -3327.96058453	    132.04373408	   -112.49725220	   1428.88167007	     40.53323975	     14.62760827	    -16.04324548
      3.70000000	     28.54384130	     28.77366775	     42.76971166	     42.15146194	    814.21901333	    -44.64043077	     -2.61881042	     41.70017648	     44.11598220	     45.00000000	     16.76190086	   1669.83560804	   -469.11428950	    141.33078044	   -179.99999979	   1785.81449018	     59.75801573	     20.30307675	     16.92496609	    -11.65125951	    -45.00000000	    -37.93246779	     45.00000000	    -45.00000000	   5499.78803190	  -3328.14652318	    132.10336928	   -112.77937969	   1428.90215683	     40.68072064	     14.55542908	    -15.93357527
      3.71000000	     28.48348804	     28.94784368	     43.07358829	     44.52220164	    812.17178277	    -44.53799003	     -2.67497354	     41.81516884	     44.12964949	     45.00000000	     16.51750614	   1669.69351911	   -469.34607657	    141.29027860	   -179.99999979	   1785.80371025	     59.83535493	     20.06174869	     16.81423281	    -11.85044792	    -45.00000000	    -37.74630036	     45.00000000	    -45.00000000	   5499.67521920	  -3328.38458577	    132.19007501	   -113.12044574	   1428.93559806	     40.82276188	     14.47752391	    -15.84000905
      3.72000000	     28.42200328	     29.08528370	     43.26788408	     46.84622329	    810.11562363	    -44.43385260	     -2.66064177	     41.94252916	     44.16942143	     45.00000000	     16.25254919	   1669.52914773	   -469.61212188	    141.34068591	   -179.99999979	   1785.85047412	     59.93221229	     19.88542329	     16.70694590	    -12.09115039	    -45.00000000	    -37.60064149	     45.00000000	    -45.00000000	   5499.50398797	  -3328.54166511	    132.25190305	   -113.50072132	   1428.96813553	     40.97125717	     14.36854349	    -15.73444159
      3.73000000	     28.33586097	     29.26836854	     43.55209379	     49.12113916	    808.06172833	    -44.33425345	     -2.73395824	     42.05059250	     44.12832898	     45.00000000	     16.06423376	   1669.42848788	   -469.82205909	    141.33042446	   -179.99999979	   1785.84318096	     60.07960317	     19.64626783	     16.54845697	    -12.26515623	    -45.00000000	    -37.44223002	     45.00000000	    -45.00000000	   5499.38635414	  -3328.75431152	    132.38347785	   -113.91145028	   1429.01541323	     41.12908370	     14.23572249	    -15.64398919
